<?xml version="1.0" encoding="UTF-8"?>
<svg width="358px" height="49px" viewBox="0 0 358 49" version="1.1" xmlns="http://www.w3.org/2000/svg" xmlns:xlink="http://www.w3.org/1999/xlink">
    <!-- Generator: Sketch 41.1 (35376) - http://www.bohemiancoding.com/sketch -->
    <title>SKJEVLING</title>
    <desc>Created with Sketch.</desc>
    <defs></defs>
    <g id="Welcome" stroke="none" stroke-width="1" fill="none" fill-rule="evenodd">
        <g id="Desktop-HD" fill="#000000">
            <path d="M-10,37.344 L-5.608,34.752 C-2.53598464,40.4160283 1.0399796,43.248 5.12,43.248 C7.7600132,43.248 10.0159906,42.4080084 11.888,40.728 C13.7600094,39.0479916 14.696,36.9600125 14.696,34.464 C14.696,32.4959902 13.9040079,30.5040101 12.32,28.488 C10.7359921,26.4719899 8.10801836,24.0840138 4.436,21.324 C0.76398164,18.5639862 -1.70799364,16.5000068 -2.98,15.132 C-4.25200636,13.7639932 -5.187997,12.3000078 -5.788,10.74 C-6.388003,9.1799922 -6.688,7.60800792 -6.688,6.024 C-6.688,2.6639832 -5.50001188,-0.17998836 -3.124,-2.508 C-0.74798812,-4.83601164 2.239982,-6 5.84,-6 C8.67201416,-6 11.1439894,-5.29200708 13.256,-3.876 C15.3680106,-2.45999292 17.4079902,-0.36001392 19.376,2.424 L15.2,5.664 C13.8559933,3.83999088 12.4640072,2.328006 11.024,1.128 C9.5839928,-0.072006 7.82001044,-0.672 5.732,-0.672 C3.64398956,-0.672 1.9400066,-0.04800624 0.62,1.2 C-0.7000066,2.44800624 -1.36,4.0319904 -1.36,5.952 C-1.36,7.8720096 -0.77200588,9.53999292 0.404,10.956 C1.58000588,12.3720071 4.24397924,14.6159846 8.396,17.688 C12.5480208,20.7600154 15.5719905,23.591987 17.468,26.184 C19.3640095,28.776013 20.312,31.5119856 20.312,34.392 C20.312,38.1360187 18.8600145,41.3879862 15.956,44.148 C13.0519855,46.9080138 9.6800192,48.288 5.84,48.288 C-0.92803384,48.288 -6.20798104,44.6400365 -10,37.344 Z M60.032,-4.704 L54.704,-4.704 L54.704,14.664 L34.112,-4.704 L27.128,-4.704 L51.968,18.48 L25.184,46.992 L32.024,46.992 L54.704,22.872 L54.704,46.992 L60.032,46.992 L60.032,-4.704 Z M90.656,-4.704 L95.912,-4.704 L95.912,30.216 C95.912,34.8720233 95.5520036,38.3759882 94.832,40.728 C94.1119964,43.0800118 92.7440101,44.9279933 90.728,46.272 C88.7119899,47.6160067 86.3360137,48.288 83.6,48.288 C79.1839779,48.288 74.8160216,46.4640182 70.496,42.816 L73.232,38.712 C75.632012,40.3440082 77.5999923,41.5319963 79.136,42.276 C80.6720077,43.0200037 82.1479929,43.392 83.564,43.392 C84.9800071,43.392 86.2759941,42.9600043 87.452,42.096 C88.6280059,41.2319957 89.4559976,40.0440076 89.936,38.532 C90.4160024,37.0199924 90.656,34.1760209 90.656,30 L90.656,-4.704 Z M108.512,-4.704 L138.176,-4.704 L138.176,0.408 L113.696,0.408 L113.696,16.536 L137.96,16.536 L137.96,21.576 L113.696,21.576 L113.696,41.88 L137.96,41.88 L137.96,46.992 L108.512,46.992 L108.512,-4.704 Z M143.144,-4.704 L148.76,-4.704 L165.896,36.552 L183.32,-4.704 L188.936,-4.704 L166.4,48.288 L165.32,48.288 L143.144,-4.704 Z M197.576,-4.704 L202.832,-4.704 L202.832,42.024 L222.704,42.024 L222.704,46.992 L197.576,46.992 L197.576,-4.704 Z M230.12,-4.704 L235.304,-4.704 L235.304,46.992 L230.12,46.992 L230.12,-4.704 Z M247.184,46.992 L247.184,-4.704 L248.336,-4.704 L282.68,34.896 L282.68,-4.704 L287.792,-4.704 L287.792,46.992 L286.64,46.992 L252.512,7.896 L252.512,46.992 L247.184,46.992 Z M353.96,3.936 L350,7.752 C347.119986,4.96798608 343.964017,2.83200744 340.532,1.344 C337.099983,-0.14400744 333.560018,-0.888 329.912,-0.888 C326.263982,-0.888 322.616018,0.09599016 318.968,2.064 C315.319982,4.03200984 312.47601,6.68398332 310.436,10.02 C308.39599,13.3560167 307.376,16.9679806 307.376,20.856 C307.376,26.9040302 309.643977,32.1719776 314.18,36.66 C318.716023,41.1480224 324.391966,43.392 331.208,43.392 C336.392026,43.392 340.843981,41.9400145 344.564,39.036 C348.284019,36.1319855 350.503996,32.184025 351.224,27.192 L334.736,27.192 L334.736,22.224 L357.056,22.224 C356.911999,30.432041 354.464024,36.8279771 349.712,41.412 C344.959976,45.9960229 338.744038,48.288 331.064,48.288 C322.231956,48.288 315.164027,45.5760271 309.86,40.152 C304.555973,34.7279729 301.904,28.3560366 301.904,21.036 C301.904,13.7159634 304.543974,7.38002676 309.824,2.028 C315.104026,-3.32402676 322.039957,-6 330.632,-6 C339.224043,-6 346.999965,-2.68803312 353.96,3.936 Z" id="SKJEVLING"></path>
        </g>
    </g>
</svg>